<?xml version="1.0" encoding="UTF-8" standalone="no"?>
<!-- Created with Inkscape (http://www.inkscape.org/) -->

<svg
   xmlns:dc="http://purl.org/dc/elements/1.1/"
   xmlns:cc="http://creativecommons.org/ns#"
   xmlns:rdf="http://www.w3.org/1999/02/22-rdf-syntax-ns#"
   xmlns:svg="http://www.w3.org/2000/svg"
   xmlns="http://www.w3.org/2000/svg"
   xmlns:sodipodi="http://sodipodi.sourceforge.net/DTD/sodipodi-0.dtd"
   xmlns:inkscape="http://www.inkscape.org/namespaces/inkscape"
   version="1.1"
   id="svg3914"
   width="614.40002"
   height="345.60001"
   viewBox="0 0 614.40002 345.60001"
   sodipodi:docname="logoPage.svg"
   inkscape:version="0.92.4 (5da689c313, 2019-01-14)">
  <metadata
     id="metadata3920">
    <rdf:RDF>
      <cc:Work
         rdf:about="">
        <dc:format>image/svg+xml</dc:format>
        <dc:type
           rdf:resource="http://purl.org/dc/dcmitype/StillImage" />
        <dc:title />
      </cc:Work>
    </rdf:RDF>
  </metadata>
  <defs
     id="defs3918" />
  <sodipodi:namedview
     pagecolor="#ffffff"
     bordercolor="#666666"
     borderopacity="1"
     objecttolerance="10"
     gridtolerance="10"
     guidetolerance="10"
     inkscape:pageopacity="0"
     inkscape:pageshadow="2"
     inkscape:window-width="1366"
     inkscape:window-height="745"
     id="namedview3916"
     showgrid="false"
     inkscape:zoom="0.56803385"
     inkscape:cx="499.00235"
     inkscape:cy="22.976924"
     inkscape:window-x="-8"
     inkscape:window-y="-8"
     inkscape:window-maximized="1"
     inkscape:current-layer="svg3914" />
  <path
     style="fill:#000000;stroke-width:3.19549847"
     d="m -198.63115,650.61234 c -7.92447,-5.49389 -10.26915,-11.61133 -13.51029,-21.56612 -1.28862,-4.15201 -3.13131,-30.97176 -3.78168,-66.80553 -7.6006,-45.40612 -14.90792,-87.42357 -24.14379,-130.19601 -4.65332,-20.62061 -6.07256,-26.65968 -9.42019,-46.93415 -8.0419,-35.16734 -17.19121,-59.83585 -22.77296,-90.45466 -1.68969,-9.52404 -3.48586,-19.50435 -3.99153,-22.17834 -0.50597,-2.674 -1.99587,-10.69611 -3.3116,-17.82678 -1.31571,-7.13075 -3.51839,-15.88209 -4.89486,-19.44747 -6.14998,-23.82085 -8.45509,-49.11386 -15.31747,-69.68662 -1.38685,0 -10.55021,-7.36212 -20.36299,-16.36028 -12.88786,-11.81801 -16.20871,-19.43515 -19.86078,-27.43507 -2.70589,-6.09107 -3.20011,-10.96934 -4.62102,-14.23018 -0.84955,-12.398778 -0.22326,-23.634639 4.33331,-31.991499 8.73655,-23.401585 28.00635,-42.723148 57.20918,-42.740978 11.99958,-0.0056 19.26778,2.262126 30.51059,9.526686 19.47217,12.582023 26.1967,27.158536 26.1967,56.78593 0,20.319631 -1.08652,24.339791 -10.40558,38.501251 -10.22878,15.54392 -10.3199,15.99827 -5.36545,26.74021 8.78287,8.54823 12.98331,15.48651 19.70899,24.27976 3.03229,2.78794 23.68849,24.45018 45.90273,48.13838 40.50922,43.197 65.33779,61.67652 82.86687,61.67652 3.912454,0 7.989733,1.45859 9.060587,3.24129 2.401003,3.99695 50.948656,4.34178 53.329289,0.3791 0.945748,-1.57436 9.521164,-3.86532 19.056468,-5.09101 9.535305,-1.22569 18.4145154,-3.94861 19.7316158,-6.05097 1.3171005,-2.10236 8.0018172,-6.73951 14.8549352,-10.30489 6.853119,-3.56536 18.45859,-14.50453 25.790059,-24.30926 7.331451,-9.80475 16.964394,-21.66987 21.40665,-26.36691 4.442256,-4.69707 8.076769,-9.86303 8.076769,-11.47979 0,-1.61684 6.379568,-9.38134 14.176823,-17.25435 7.797272,-7.87309 14.176824,-16.12638 14.176824,-18.34065 0,-2.2142 1.79204,-5.19228 3.98217,-6.61788 2.19021,-1.42562 9.51429,-10.97868 16.2757,-21.22913 17.33612,-23.38557 34.20635,-43.84722 49.051,-67.234661 0,-1.612778 5.00049,-6.856381 11.1122,-11.652363 6.11164,-4.796075 10.39697,-9.455867 9.52291,-10.35515 -0.87413,-0.899264 2.63151,-6.58085 7.79023,-12.625727 10.35978,-12.139331 11.99886,-23.813378 4.43603,-31.594267 -2.71887,-2.797302 -6.26308,-9.820028 -7.87599,-15.6059806 -3.90795,-14.0190957 -3.75391,-47.8370654 0.21818,-47.8370654 1.73273,0 3.15038,-1.89178 3.15038,-4.204059 0,-6.006099 22.89475,-28.208306 29.08816,-28.208306 2.85695,0 6.0706,-1.458593 7.14155,-3.24128 1.07085,-1.782685 6.47081,-3.219098 11.99994,-3.19206 17.15881,0.08409 35.13753,7.55465 47.76806,19.848898 11.70949,11.397723 12.1663,12.66089 13.5643,37.506427 1.30404,23.17723875 0.58859,27.5144606 -7.25913,44.003636 l -8.70575,18.292152 9.1211,11.824879 c 5.01666,6.503655 10.53883,14.207052 12.27156,17.118581 1.73268,2.911548 6.69459,9.909122 11.02637,15.550174 4.33186,5.641053 11.42027,15.578514 15.75205,22.083262 8.78832,13.19671 25.70358,36.19868 32.54502,44.25588 2.45972,2.8969 5.02636,6.54324 5.7036,8.10309 26.73566,40.74619 36.73988,56.21437 62.56429,91.0384 0,1.50802 2.83535,4.84441 6.30083,7.41425 3.46541,2.56975 6.35179,6.17354 6.41406,8.00826 0.17682,5.20491 13.2255,19.42349 21.93958,23.90652 4.33177,2.22863 13.54669,7.51036 20.47758,11.73719 6.93089,4.22689 17.1254,7.80283 22.65452,7.94651 38.56673,9.32038 90.95274,9.00534 121.71007,-21.56074 33.6229,-30.53791 54.80123,-50.9159 76.95131,-72.73393 13.7082,-14.21567 20.52999,-22.3584 29.14122,-32.72058 6.82956,-11.43301 8.00813,-8.99468 -2.86492,-23.07117 -11.93058,-15.44552 -14.59987,-44.93705 -10.71258,-67.326648 1.90803,-10.989838 7.11176,-22.721508 16.08985,-29.340484 17.0129,-12.542525 41.3877,-16.754122 62.12842,-12.682644 13.59271,2.668266 27.10866,11.405633 34.55298,23.087428 10.96758,17.210567 15.83888,41.167048 9.3298,60.509338 -6.67806,19.84469 -25.06417,35.9591 -45.15705,43.66352 -4.36999,1.46265 -9.94971,32.20104 -16.02758,53.83748 -4.41216,17.40673 -7.69302,27.83276 -11.47773,41.97799 -2.80174,10.33737 -6.86908,26.9209 -9.03863,36.85227 -10.72989,39.61269 -17.42122,57.09791 -27.15716,99.67833 -15.304,69.16369 -25.605,128.07909 -30.60278,206.93611 -1.45729,32.79052 -0.41029,34.6683 -19.0416,35.82377 -11.38599,0.70602 -889.62476,5.36335 -900.48267,-0.18703 z"
     id="path3946"
     inkscape:connector-curvature="0"
     sodipodi:nodetypes="ccccccccccccccccsccccsccsssssscscccccsccsssccscccccccccccccccccccaaaaaccccccscc" />
  <text
     xml:space="preserve"
     style="font-style:normal;font-weight:normal;font-size:302.25085449px;line-height:1.25;font-family:sans-serif;letter-spacing:0px;word-spacing:0px;fill:#ffffff;fill-opacity:1;stroke:none;stroke-width:7.55627155"
     x="242.66731"
     y="629.0542"
     id="text3954"
     transform="scale(1.0424237,0.95930283)"><tspan
       sodipodi:role="line"
       id="tspan3952"
       x="260.72684"
       y="629.0542"
       style="font-style:normal;font-variant:normal;font-weight:normal;font-stretch:condensed;font-size:362.7010498px;line-height:7873.63525391px;font-family:Impact;-inkscape-font-specification:'Impact Condensed';text-align:center;letter-spacing:36.11899185px;word-spacing:33.70096588px;baseline-shift:baseline;text-anchor:middle;stroke-width:7.55627155"
       dy="14.734732"
       rotate="0 0 0 0">VSR</tspan></text>
  <g
     aria-label="Parts"
     transform="matrix(2.1521557,0,0,2.1521557,-404.76168,-160.26339)"
     style="font-style:normal;font-variant:normal;font-weight:normal;font-stretch:normal;font-size:40px;line-height:1.25;font-family:Impact;-inkscape-font-specification:Impact;text-align:start;letter-spacing:0px;word-spacing:0px;text-anchor:start;fill:#000000;fill-opacity:1;stroke:none"
     id="flowRoot4140">
    <path
       d="m 608.1193,139.20431 h 60.02874 q 24.35124,0 37.37638,3.82255 13.16663,3.82256 19.6792,11.04305 6.65416,7.22042 8.91938,17.55555 2.4068,10.19355 2.4068,31.71329 v 19.96241 q 0,21.94444 -4.53046,31.99642 -4.53048,10.05201 -16.70614,15.43195 -12.03402,5.37988 -31.57173,5.37988 h -15.9982 V 368.4178 H 608.1193 Z m 59.60397,39.21685 v 58.32985 q 2.54844,0.14142 4.38889,0.14142 8.21146,0 11.32618,-3.9642 3.25629,-4.1057 3.25629,-16.84769 V 197.2508 q 0,-11.75094 -3.681,-15.29036 -3.68098,-3.53943 -15.29036,-3.53943 z"
       style="stroke-width:7.24875307"
       id="path4148"
       inkscape:connector-curvature="0" />
    <path
       d="M 803.07111,253.31549 H 749.4133 v -12.60035 q 0,-21.80288 4.95525,-33.55377 5.09674,-11.89251 20.24555,-20.95345 15.14874,-9.06096 39.35842,-9.06096 29.02334,0 43.74737,10.33514 14.72403,10.19357 17.69719,25.20072 2.97308,14.86567 2.97308,61.44458 v 94.2904 h -55.63985 v -16.70614 q -5.2383,10.05199 -13.5914,15.14882 -8.21147,4.95517 -19.67922,4.95517 -15.00715,0 -27.6076,-8.35304 -12.45879,-8.49466 -12.45879,-36.95167 v -15.43195 q 0,-21.09496 6.65414,-28.74014 6.65413,-7.6452 32.98749,-17.83875 28.17388,-11.04304 30.15597,-14.86561 1.98209,-3.82254 1.98209,-15.57351 0,-14.72402 -2.26522,-19.11292 -2.12368,-4.53048 -7.22049,-4.53048 -5.80465,0 -7.22041,3.82264 -1.41576,3.681 -1.41576,19.39607 z m 18.12188,25.76708 q -13.73298,10.05198 -15.9982,16.84768 -2.12368,6.79572 -2.12368,19.53764 0,14.58246 1.84045,18.82981 1.98211,4.24733 7.6452,4.24733 5.37994,0 6.93727,-3.25628 1.69896,-3.39785 1.69896,-17.55562 z"
       style="stroke-width:7.24875307"
       id="path4150"
       inkscape:connector-curvature="0" />
    <path
       d="m 955.26658,180.54483 -2.26524,24.63445 q 12.45881,-26.47499 36.10221,-28.03232 v 66.11655 q -15.71507,0 -23.07707,4.24733 -7.36205,4.24733 -9.06094,11.89251 -1.69896,7.50356 -1.69896,34.82794 V 368.4178 H 898.06943 V 180.54483 Z"
       style="stroke-width:7.24875307"
       id="path4152"
       inkscape:connector-curvature="0" />
    <path
       d="m 1067.1126,155.48567 v 29.58962 h 15.4319 v 29.73121 h -15.4319 v 100.51982 q 0,18.54659 1.8405,20.67027 1.982,2.12365 15.9983,2.12365 v 30.29756 h -23.0772 q -19.5376,0 -27.8906,-1.55732 -8.3531,-1.69897 -14.7241,-7.50364 -6.371,-5.94622 -7.9283,-13.44983 -1.5574,-7.64518 -1.5574,-35.67742 V 214.8065 h -12.31723 v -29.73121 h 12.31723 v -29.58962 z"
       style="stroke-width:7.24875307"
       id="path4154"
       inkscape:connector-curvature="0" />
    <path
       d="m 1211.9461,240.57355 h -50.6847 v -10.19354 q 0,-13.02507 -1.5573,-16.42292 -1.4158,-3.53951 -7.362,-3.53951 -4.8136,0 -7.2204,3.25629 -2.4068,3.11472 -2.4068,9.48572 0,8.63617 1.1326,12.74194 1.2742,3.96413 7.2204,8.77779 6.0878,4.81361 24.776,14.01613 24.9176,12.17566 32.7043,22.93549 7.7868,10.7599 7.7868,31.28858 0,22.9355 -5.9463,34.68645 -5.9462,11.60931 -19.9623,17.98024 -13.8746,6.22944 -33.5539,6.22944 -21.8028,0 -37.3764,-6.79572 -15.4318,-6.7957 -21.2366,-18.40501 -5.8046,-11.60938 -5.8046,-35.11114 v -9.06096 h 50.6846 v 11.89246 q 0,15.14881 1.8406,19.67927 1.982,4.53048 7.6451,4.53048 6.0879,0 8.4947,-2.97315 2.4068,-3.11472 2.4068,-12.88351 0,-13.44983 -3.1147,-16.84768 -3.2563,-3.39787 -33.2707,-20.10399 -25.2007,-14.15775 -30.7222,-25.62551 -5.5215,-11.60931 -5.5215,-27.46594 0,-22.5108 5.9462,-33.12906 5.9462,-10.7599 20.104,-16.56455 14.2993,-5.80468 33.129,-5.80468 18.6883,0 31.7133,4.81361 13.1667,4.67205 20.104,12.45881 7.0788,7.78675 8.4946,14.44088 1.5574,6.65415 1.5574,20.81183 z"
       style="stroke-width:7.24875307"
       id="path4156"
       inkscape:connector-curvature="0" />
  </g>
</svg>
