<?xml version="1.0" encoding="UTF-8" standalone="no"?>
<!-- Created with Inkscape (http://www.inkscape.org/) -->

<svg
   xmlns:dc="http://purl.org/dc/elements/1.1/"
   xmlns:cc="http://creativecommons.org/ns#"
   xmlns:rdf="http://www.w3.org/1999/02/22-rdf-syntax-ns#"
   xmlns:svg="http://www.w3.org/2000/svg"
   xmlns="http://www.w3.org/2000/svg"
   xmlns:sodipodi="http://sodipodi.sourceforge.net/DTD/sodipodi-0.dtd"
   xmlns:inkscape="http://www.inkscape.org/namespaces/inkscape"
   version="1.1"
   id="svg3914"
   width="614.40002"
   height="345.60001"
   viewBox="0 0 614.40002 345.60001"
   sodipodi:docname="logoPage.svg"
   inkscape:version="0.92.4 (5da689c313, 2019-01-14)">
  <metadata
     id="metadata3920">
    <rdf:RDF>
      <cc:Work
         rdf:about="">
        <dc:format>image/svg+xml</dc:format>
        <dc:type
           rdf:resource="http://purl.org/dc/dcmitype/StillImage" />
        <dc:title></dc:title>
      </cc:Work>
    </rdf:RDF>
  </metadata>
  <defs
     id="defs3918" />
  <sodipodi:namedview
     pagecolor="#ffffff"
     bordercolor="#666666"
     borderopacity="1"
     objecttolerance="10"
     gridtolerance="10"
     guidetolerance="10"
     inkscape:pageopacity="0"
     inkscape:pageshadow="2"
     inkscape:window-width="1366"
     inkscape:window-height="745"
     id="namedview3916"
     showgrid="false"
     inkscape:zoom="1.1360677"
     inkscape:cx="522.60621"
     inkscape:cy="167.95366"
     inkscape:window-x="-8"
     inkscape:window-y="-8"
     inkscape:window-maximized="1"
     inkscape:current-layer="flowRoot4140" />
  <path
     style="fill:#000000;stroke-width:0.44083419"
     d="m 140.00242,164.48669 c -1.09322,-0.75791 -1.41668,-1.60184 -1.86381,-2.97515 -0.17777,-0.57279 -0.43198,-4.2727 -0.5217,-9.21614 -1.04854,-6.26399 -2.05662,-12.0605 -3.33075,-17.96116 -0.64195,-2.84471 -0.83774,-3.67783 -1.29956,-6.47479 -1.10942,-4.8515 -2.37161,-8.25464 -3.14164,-12.47865 -0.2331,-1.31389 -0.48089,-2.69072 -0.55065,-3.05961 -0.0698,-0.36889 -0.27534,-1.47558 -0.45685,-2.45929 -0.18151,-0.98372 -0.48538,-2.19101 -0.67527,-2.68287 -0.84842,-3.2862 -1.16642,-6.77549 -2.11312,-9.613599 -0.19132,0 -1.45545,-1.01564 -2.80917,-2.25698 -1.77794,-1.63035 -2.23607,-2.68117 -2.73989,-3.7848 -0.37329,-0.84029 -0.44147,-1.51327 -0.63749,-1.96312 -0.1172,-1.71047 -0.0308,-3.26051 0.5978,-4.41338 1.20525,-3.22836 3.86361,-5.89386 7.89228,-5.89632 1.6554,-8.9e-4 2.65808,0.31207 4.20908,1.31425 2.68628,1.73575 3.61396,3.74665 3.61396,7.83389 0,2.80319 -0.14989,3.35779 -1.4355,5.31143 -1.41111,2.14436 -1.42368,2.20704 -0.74019,3.68894 1.21164,1.17927 1.79111,2.13644 2.71895,3.349509 0.41832,0.38461 3.26794,3.37302 6.3325,6.64092 5.58844,5.95923 9.01366,8.50857 11.43188,8.50857 0.53974,0 1.10222,0.20122 1.24995,0.44715 0.33123,0.5514 7.02861,0.59897 7.35703,0.0523 0.13047,-0.21719 1.31349,-0.53324 2.62893,-0.70233 1.31544,-0.16909 2.54037,-0.54473 2.72207,-0.83476 0.1817,-0.29003 1.10389,-0.92975 2.04931,-1.42161 0.94542,-0.49186 2.54645,-2.00097 3.55786,-3.35358 1.01141,-1.35261 2.34032,-2.98946 2.95315,-3.63744 0.61283,-0.64798 1.11423,-1.36065 1.11423,-1.58369 0,-0.22305 0.88009,-1.2942 1.95576,-2.38032 1.07567,-1.08613 1.95576,-2.22471 1.95576,-2.530179 0,-0.30546 0.24722,-0.7163 0.54936,-0.91297 0.30215,-0.19667 1.31254,-1.51456 2.24531,-2.92866 2.3916,-3.22615 4.71893,-6.04893 6.76682,-9.27534 0,-0.22249 0.68984,-0.94587 1.53298,-1.6075 0.84313,-0.66164 1.43431,-1.30448 1.31373,-1.42854 -0.12059,-0.12406 0.36303,-0.90786 1.0747,-1.74178 1.42918,-1.67468 1.6553,-3.28517 0.61197,-4.35858 -0.37508,-0.3859 -0.86402,-1.35472 -1.08653,-2.15292 -0.53912,-1.934 -0.51787,-6.59935 0.0301,-6.59935 0.23904,0 0.43461,-0.26098 0.43461,-0.57997 0,-0.82857 3.15844,-3.89147 4.01285,-3.89147 0.39413,0 0.83747,-0.20122 0.98521,-0.44715 0.14773,-0.24593 0.89268,-0.44409 1.65545,-0.44036 2.36714,0.0116 4.84739,1.0422 6.58983,2.73825 1.61538,1.57237 1.6784,1.74663 1.87126,5.17419 0.1799,3.19741 0.0812,3.79575 -1.00143,6.07051 l -1.201,2.52349 1.2583,1.6313 c 0.69207,0.89721 1.45388,1.95993 1.69292,2.36159 0.23903,0.40166 0.92355,1.36701 1.52114,2.14522 0.5976,0.77821 1.57548,2.14913 2.17307,3.04649 1.21239,1.82055 3.54593,4.99378 4.48974,6.10531 0.33933,0.39964 0.69341,0.90267 0.78684,1.11786 3.68831,5.621129 5.06844,7.755039 8.63104,12.559179 0,0.20804 0.39115,0.66831 0.86923,1.02283 0.47807,0.35451 0.87626,0.85167 0.88485,1.10478 0.0244,0.71804 1.82452,2.67956 3.02667,3.29802 0.59759,0.30745 1.86883,1.03609 2.82498,1.6192 0.95615,0.58312 2.36253,1.07644 3.1253,1.09626 5.32046,1.28579 12.54736,1.24233 16.79048,-2.97441 4.63844,-4.21285 7.56009,-7.02409 10.6158,-10.03399 1.89111,-1.96112 2.83221,-3.08445 4.02017,-4.513959 0.94217,-1.57724 1.10476,-1.24086 -0.39523,-3.18278 -1.64588,-2.13078 -2.01412,-6.19928 -1.47785,-9.28803 0.26322,-1.5161 0.9811,-3.13454 2.21967,-4.04766 2.34701,-1.7303 5.70963,-2.31131 8.57091,-1.74963 1.87518,0.3681 3.73977,1.57346 4.76675,3.18502 1.51303,2.37428 2.18505,5.67919 1.28709,8.34755 -0.92127,2.73767 -3.45772,4.96073 -6.22963,6.02359 -0.60286,0.20178 -1.37261,4.442289 -2.21108,7.427139 -0.60868,2.40134 -1.06129,3.83966 -1.58341,5.79106 -0.38651,1.42609 -0.94762,3.71387 -1.24692,5.08395 -1.48024,5.46476 -2.40334,7.87693 -3.74646,13.7511 -2.11126,9.54146 -3.53233,17.66912 -4.2218,28.54782 -0.20104,4.52361 -0.0566,4.78266 -2.62688,4.94206 -1.57075,0.0974 -122.72797,0.7399 -124.22587,-0.0258 z"
     id="path3946"
     inkscape:connector-curvature="0"
     sodipodi:nodetypes="ccccccccccccccccsccccsccsssssscscccccsccsssccscccccccccccccccccccaaaaaccccccscc" />
  <text
     xml:space="preserve"
     style="font-style:normal;font-weight:normal;font-size:41.69694519px;line-height:1.25;font-family:sans-serif;letter-spacing:0px;word-spacing:0px;fill:#ffffff;fill-opacity:1;stroke:none;stroke-width:1.04242361"
     x="194.06876"
     y="164.68303"
     id="text3954"
     transform="scale(1.0424237,0.95930283)"><tspan
       sodipodi:role="line"
       id="tspan3952"
       x="196.56015"
       y="164.68303"
       style="font-style:normal;font-variant:normal;font-weight:normal;font-stretch:condensed;font-size:50.03633499px;line-height:1086.20544434px;font-family:Impact;-inkscape-font-specification:'Impact Condensed';text-align:center;letter-spacing:4.98278666px;word-spacing:4.64920855px;baseline-shift:baseline;text-anchor:middle;stroke-width:1.04242361"
       dy="2.0327263"
       rotate="0 0 0 0">VSR</tspan></text>
  <g
     aria-label="Parts"
     transform="matrix(2.1521557,0,0,2.1521557,-404.76168,-160.26339)"
     style="font-style:normal;font-variant:normal;font-weight:normal;font-stretch:normal;font-size:40px;line-height:1.25;font-family:Impact;-inkscape-font-specification:Impact;text-align:start;letter-spacing:0px;word-spacing:0px;text-anchor:start;fill:#000000;fill-opacity:1;stroke:none"
     id="flowRoot4140">
    <path
       d="m 323.80469,118.12142 h 8.28125 q 3.35937,0 5.15625,0.52734 1.8164,0.52734 2.71484,1.52344 0.91797,0.99609 1.23047,2.42187 0.33203,1.40625 0.33203,4.375 v 2.75391 q 0,3.02734 -0.625,4.41406 -0.625,1.38672 -2.30469,2.12891 -1.66015,0.74218 -4.35547,0.74218 h -2.20703 v 12.73438 h -8.22265 z m 8.22265,5.41015 v 8.04688 q 0.35157,0.0195 0.60547,0.0195 1.13281,0 1.5625,-0.54688 0.44922,-0.5664 0.44922,-2.32422 v -2.59765 q 0,-1.6211 -0.50781,-2.10938 -0.50781,-0.48828 -2.10938,-0.48828 z"
       style=""
       id="path4148" />
    <path
       d="m 350.69922,133.8636 h -7.40235 v -1.73828 q 0,-3.00781 0.6836,-4.6289 0.70312,-1.64063 2.79297,-2.89063 2.08984,-1.25 5.42968,-1.25 4.00391,0 6.03516,1.42578 2.03125,1.40625 2.44141,3.47656 0.41015,2.05079 0.41015,8.47657 v 13.00781 h -7.67578 v -2.30469 q -0.72265,1.38672 -1.875,2.08985 -1.13281,0.68359 -2.71484,0.68359 -2.07031,0 -3.8086,-1.15234 -1.71875,-1.17188 -1.71875,-5.09766 v -2.12891 q 0,-2.91015 0.91797,-3.96484 0.91797,-1.05469 4.55078,-2.46094 3.88672,-1.52344 4.16016,-2.05078 0.27344,-0.52734 0.27344,-2.14844 0,-2.03125 -0.3125,-2.63672 -0.29297,-0.625 -0.9961,-0.625 -0.80078,0 -0.99609,0.52735 -0.19531,0.50781 -0.19531,2.67578 z m 2.5,3.55469 q -1.89453,1.38672 -2.20703,2.32422 -0.29297,0.9375 -0.29297,2.69531 0,2.01172 0.2539,2.59766 0.27344,0.58594 1.05469,0.58594 0.74219,0 0.95703,-0.44922 0.23438,-0.46875 0.23438,-2.42188 z"
       style=""
       id="path4150" />
    <path
       d="m 371.69531,123.82454 -0.3125,3.39844 q 1.71875,-3.65235 4.98047,-3.86719 v 9.12109 q -2.16797,0 -3.18359,0.58594 -1.01563,0.58594 -1.25,1.64063 -0.23438,1.03515 -0.23438,4.80468 v 10.23438 h -7.89062 v -25.91797 z"
       style=""
       id="path4152" />
    <path
       d="m 387.125,120.36751 v 4.08203 h 2.12891 v 4.10156 H 387.125 v 13.86719 q 0,2.55859 0.25391,2.85156 0.27343,0.29297 2.20703,0.29297 v 4.17969 h -3.1836 q -2.69531,0 -3.84765,-0.21484 -1.15235,-0.23438 -2.03125,-1.03516 -0.87891,-0.82031 -1.09375,-1.85547 -0.21485,-1.05469 -0.21485,-4.92187 V 128.5511 h -1.69922 v -4.10156 h 1.69922 v -4.08203 z"
       style=""
       id="path4154" />
    <path
       d="m 407.10547,132.10579 h -6.99219 v -1.40625 q 0,-1.79687 -0.21484,-2.26562 -0.19532,-0.48829 -1.01563,-0.48829 -0.66406,0 -0.99609,0.44922 -0.33203,0.42969 -0.33203,1.3086 0,1.1914 0.15625,1.75781 0.17578,0.54687 0.99609,1.21094 0.83984,0.66406 3.41797,1.93359 3.4375,1.67969 4.51172,3.16406 1.07422,1.48438 1.07422,4.31641 0,3.16406 -0.82032,4.78516 -0.82031,1.60156 -2.7539,2.48046 -1.91406,0.85938 -4.62891,0.85938 -3.00781,0 -5.15625,-0.9375 -2.1289,-0.9375 -2.92969,-2.53906 -0.80078,-1.60157 -0.80078,-4.84375 v -1.25 h 6.99219 v 1.64062 q 0,2.08985 0.25391,2.71485 0.27343,0.625 1.05468,0.625 0.83985,0 1.17188,-0.41016 0.33203,-0.42969 0.33203,-1.77734 0,-1.85547 -0.42969,-2.32422 -0.44922,-0.46875 -4.58984,-2.77344 -3.47656,-1.95313 -4.23828,-3.53516 -0.76172,-1.60156 -0.76172,-3.78906 0,-3.10547 0.82031,-4.57031 0.82031,-1.48438 2.77344,-2.28516 1.97266,-0.80078 4.57031,-0.80078 2.57813,0 4.375,0.66406 1.81641,0.64453 2.77344,1.71875 0.97656,1.07422 1.17187,1.99219 0.21485,0.91797 0.21485,2.87109 z"
       style=""
       id="path4156" />
  </g>
</svg>
